Patient4_TMGait_0pt3_01_left_21_EMG.mot
version=1
nRows=40
nColumns=33
inDegrees=no
endheader
time	1LAddLong	2LGlutMax	3LGlutMed	4LIliopsoas	5LSemiMemb	6LBicFemLong	7LRecFem	8LVastMed	9LVastLat	10LGasMed	11LTibAnt	12lTibPost	13LPeroneusLong	14LSol	15LExtDigLong	16LFlexDigLong	17RAddLong	18RGlutMax	19RGlutMed	20RIliopsoas	21RSemiMemb	22RBicFemLong	23RRecFem	24RVastMed	25RVastLat	26RGasMed	27RTibAnt	28RTibPost	29RPeroneusLong	30RSol	31RExtDigLong	32RFlexDigLong
39.977	-0.014191	-0.054779	0.067902	0.001831	0.016479	0.22415	-0.021362	-0.023346	-0.28564	0.17044	-0.026703	0.002136	-0.31525	-0.062561	0.062561	0.008698	0.049438	-0.088196	-0.24384	-0.002289	-0.00351	-0.048676	0.112	-0.088348	0.018158	0.012817	0.027618	-0.005493	0.025635	0.040588	-0.004425	-0.005188
39.978	-0.022583	0.070496	0.072937	0.015564	-0.002594	0.25818	0.001221	-0.013428	-0.16403	-0.003204	-0.015259	0.007324	-0.16007	-0.19165	0.075073	0.015411	0.060272	-0.024414	-0.10712	0.013733	-0.025177	-0.15182	0.13245	-0.11353	0.000305	0.000305	0.04776	-0.005188	-0.053864	0.025024	-0.004425	-0.009918
39.979	-0.016022	0.15625	0.074768	0.019836	-0.050964	0.32898	-0.001221	0.006409	-0.018921	0.048065	0.005035	-0.00473	-0.30609	-0.15717	0.046387	0.009613	0.06897	-0.046387	0.038605	0.070953	-0.06012	-0.14633	0.16083	-0.17441	-0.008087	0.000763	0.029907	-0.007019	-0.02594	-0.006866	-0.00351	-0.014191
39.98	-0.003204	0.15671	0.046997	0.027161	-0.11139	0.20447	-0.058289	0.011749	0.00885	0.1593	-0.00351	-0.006409	-0.059052	0.040131	0.10025	0.004425	0.068054	0.04837	-0.067291	0.061035	-0.012207	-0.089264	0.11963	-0.10239	0.019226	-0.005798	0.028687	0.006104	-0.034332	-0.046082	-0.006561	-0.010681
39.981	-0.004883	0.10544	-0.041046	0.005341	-0.15747	0.095062	-0.063782	0.01297	-0.00061	-0.032959	-0.004883	-0.000153	0.22797	0.005188	-0.063629	0.006561	0.034485	0.075073	0.15137	-0.009155	0.023499	0.09491	0.07019	-0.027466	0.041504	-0.006409	0.034485	0.012665	-0.081635	-0.067139	-0.004883	-0.015564
39.982	0.012512	0.05188	-0.067902	0.014648	-0.049744	-0.11688	-0.048828	0.014343	0.009308	-0.049744	0.005035	0.000153	0.088806	-0.007324	-0.050354	-0.000153	0.026245	0.008087	0.087738	-0.045319	0.12192	0.18005	0.090179	-0.092316	0.031433	-0.007782	0.014648	-0.002289	-0.058746	-0.02243	-0.002747	-0.01236
39.983	0.022125	-0.03952	-0.025787	-0.010376	0.079956	-0.29144	0.076599	0.001678	0.1564	-0.004425	0.009918	0.002899	-0.01297	-0.15671	0.01297	-0.005035	0.032196	0.011139	-0.085449	-0.048065	0.19974	0.2269	0.13947	-0.089874	0.00946	-0.003967	0.011139	-0.38635	-0.04715	0.13962	-0.005035	-0.009308
39.984	-0.016022	-0.13748	-0.05249	0.005646	0.073242	-0.19882	0.17563	0.014038	0.15442	0.1709	-0.008698	0.010681	-0.033417	-0.10239	-0.054626	-0.007019	0.050201	0.072327	-0.19486	-0.054016	0.14771	0.13443	0.11978	-0.11261	0.007935	0.005341	0.023804	0.028992	-0.071106	0.19073	-0.002289	-0.014801
39.985	-0.03418	-0.16037	-0.088043	0.000763	0.014648	-0.016937	0.18249	0.015564	0.02243	0.19409	0.012817	0.005951	-0.12085	-0.087738	-0.068817	-0.023804	0.009308	0.10437	-0.25589	-0.052032	0.017853	0.06546	0.12665	-0.082855	0.002899	0.012512	0.020599	0.21927	-0.08316	0.01236	-0.005035	-0.015106
39.986	-0.037537	-0.16281	-0.071259	-0.003204	-0.062714	-0.067902	0.16174	0.014496	-0.057068	0.22842	-0.013123	-0.002289	-0.13947	-0.044556	0.034485	-0.000305	-0.011292	0.12436	-0.089874	-0.07309	-0.022278	-0.010834	0.16419	-0.014191	0.002899	0.020905	0.044861	0.088196	-0.11276	-0.12039	-0.006866	-0.012665
39.987	-0.007935	-0.21103	-0.059052	0.003052	-0.10086	0.021057	0.11993	0.006866	-0.063171	0.29846	0.004883	0.004272	-0.095367	-0.16144	0.079651	0.001373	0.006256	0.10529	0.13916	0.017242	-0.007172	-0.000763	0.15533	-0.06958	0.001221	0.00824	0.049438	0.013428	-0.050049	-0.15427	-0.003967	-0.014191
39.988	0.023346	-0.14771	-0.08316	0.009766	0.038605	0.11368	0.081635	0.015259	-0.079193	-0.23651	-0.016022	-0.000153	0.11505	-0.13443	0.06073	0.007019	0.001373	0.06546	0.32974	0.066681	0.007019	0.012054	0.12436	-0.057373	0.02655	0.004883	0.062866	0.032654	-0.024414	-0.17242	0.008698	-0.011902
39.989	0.007782	-0.053101	0.001526	0.005646	0.012665	0.36453	0.063171	0.010681	-0.093842	-0.47699	0.018921	0.011444	0.13825	-0.089569	0.046234	-0.002289	-0.007629	0.074005	-0.28976	0.11734	0.049744	0.042572	0.14389	0.004425	0.023499	0.000763	0.11688	0.005035	0.14282	-0.15686	-0.007782	-0.010376
39.99	0.006866	-0.015411	-0.011597	-0.003967	0.04425	0.47165	0.069427	0.006561	-0.066681	-0.36346	0.01297	0.007172	0.084229	-0.098267	0.050049	0.009155	-0.005798	0.036316	-0.22171	0.13611	0.039215	0.067444	0.13534	-0.037384	0.027466	-0.008698	0.010834	-0.001984	0.11307	-0.088348	-0.003052	-0.009766
39.991	-0.012054	-0.005646	-0.12558	0.000763	-0.001678	0.49362	0.082092	-0.001831	0.003204	0.055695	-0.008087	0.005951	0.010986	-0.083008	0.049591	-0.003967	-0.016785	0.037231	-0.18692	0.12451	-0.079346	0.11047	0.14816	0.014648	0.018158	-0.014954	-0.025024	-0.006256	-0.050049	-0.068359	-0.004578	-0.001373
39.992	-0.010681	-0.006561	-0.10162	-0.001678	-0.036774	0.43655	0.041351	-0.010071	0.065002	-0.028381	-0.002136	-0.001221	-0.054474	-0.12085	0.019226	-0.000153	-0.015564	0.013733	-0.17044	0.066223	-0.11398	0.079803	0.16892	-0.022125	0.018768	-0.011597	0.023346	0.005493	-0.45013	-0.081177	-0.004425	-0.002441
39.993	-0.00885	0.000153	-0.092316	0.005035	-0.042419	0.20004	0.048218	-0.009155	0.040894	-0.048981	0.009308	0.002747	-0.2179	-0.055847	0.005188	0.002136	-0.016327	-0.009766	0.14893	-0.098419	-0.018616	0.059967	0.1564	-0.075226	0.028381	0.00351	0.040436	-0.001678	-0.91171	-0.1149	-0.005798	0.003204
39.994	-0.015717	0.067596	-0.095215	0.011597	-0.036774	-0.41077	0.10162	0.005341	-0.050964	0.064392	-0.010529	0.005493	0.2504	-0.099182	0.062256	0.009613	-0.009155	-0.029297	0.055389	-0.18066	-0.015411	0.053711	0.15427	-0.084381	0.033722	0.023956	0.012054	-0.008392	-0.97321	-0.16434	-0.003967	0.00824
39.995	-0.008698	0.12268	-0.10452	-0.005951	-0.075989	-0.4924	0.13702	0.002594	-0.086823	0.035095	-0.010071	0.009003	0.61417	-0.054016	0.047607	-0.000458	0.019684	-0.036316	0.054779	-0.16174	-0.039978	0.049744	0.12802	-0.021057	0.019073	0.036011	-0.028687	-0.023956	-0.67246	-0.098572	-0.005341	0.005341
39.996	0.017853	0.13306	-0.051727	-0.012817	-0.10147	-0.10971	0.12955	-0.008545	-0.022278	0.065155	0.015869	0	0.48584	-0.059814	0.11795	0.002289	0.009613	0.000763	0.14511	-0.095673	-0.049438	0.039368	0.12634	-0.005035	0.057068	0.003967	-0.067139	-0.074158	0.45685	0.1265	-0.003357	0.003815
39.997	0.037079	0.1387	0.063019	-0.000458	-0.063782	-0.089569	0.10529	-0.016327	0.035706	0.28442	0.075226	0.018005	0.36423	-0.082855	0.087433	0.007477	0.023956	0.005646	0.019684	-0.01297	-0.085449	-0.023651	0.15289	-0.061493	0.056915	-0.048065	-0.020447	-0.26032	1.2508	-0.16449	-0.004272	-0.001526
39.998	0.034332	0.091095	0.055237	0.036621	0.05127	0.028534	0.081635	-0.011444	0.015717	0.092468	0.02121	0.003357	-0.48157	-0.22278	-0.12466	0.011444	0.040436	0.02243	-0.24902	0.14664	-0.083923	-0.026398	0.18677	-0.10346	0.027618	-0.023499	-0.018463	0.16724	1.2248	-0.30212	-0.003052	-0.005646
39.999	0.023804	0.077362	0.085907	0.042267	0.081787	0.26627	0.090179	-0.007629	-0.014801	-0.4715	-0.024261	-0.001984	-0.12878	-0.16693	-0.11826	-0.002899	0.057373	0.026093	-0.20462	0.14618	-0.009613	-0.069122	0.14984	-0.098114	0.06073	-0.003357	-0.034485	0.088654	0.71121	-0.1088	-0.005798	0.001373
40	0.01236	0.066528	0.070343	0.02243	0.052338	0.22736	0.053253	0.003815	-0.015259	-0.28702	0.003204	0.004425	-0.11719	-0.16022	-0.079193	-0.013885	0.063019	-0.025177	-0.05661	0.062561	0.030518	-0.059814	0.1387	-0.068665	0.039825	-0.002594	-0.070038	0.054626	0.37003	-0.34363	-0.003967	-0.007629
40.001	0.009308	0.071259	0.071564	0.007935	-0.012817	0.13214	0.033569	0.005341	0.009918	-0.15518	0.042725	0.006104	-0.16876	-0.18372	-0.049591	-0.00885	0.048523	-0.019684	0.050049	-0.08255	-0.049744	0.070648	0.16342	-0.11612	0.04425	0.028076	-0.047302	-0.047913	-0.41702	-0.20355	-0.002289	-0.006714
40.002	0.000305	0.10529	0.023651	0.011597	-0.11688	0.15579	-0.02121	0.008392	0.003967	-0.14084	-0.000916	-0.003204	-0.22018	-0.13245	0.010681	0.002747	0.017395	-0.005188	0.10056	-0.057373	-0.24933	0.099792	0.15182	-0.027771	0.053406	0.029602	-0.019379	-0.51193	-0.54703	0.65979	-0.002899	0.00061
40.003	0.003967	0.14358	-0.00061	0.001068	-0.1239	-0.59555	-0.002136	-0.001221	0.031586	-0.060883	-0.00412	0.005035	0.30045	-0.030518	-0.10284	-0.008087	-0.005646	0.068359	0.019836	0.040588	-0.103	-0.002899	0.14282	0.076599	0.053711	-0.021362	0.046539	0.22675	-0.48981	0.25757	-0.000916	-0.008545
40.004	0.016327	0.14557	-0.074615	0.005646	-0.021973	-0.76584	0.067444	-0.002289	0.012512	-0.054321	-0.042267	0.001221	-0.13092	0.1236	-0.052795	-0.003052	-0.013733	-0.030518	0.046539	0.18524	-0.027466	0.081482	0.1239	0.027771	0.046082	-0.043488	0.068817	0.24414	-0.043182	-0.42206	-0.002747	-0.007172
40.005	0.017395	0.18967	-0.085297	0.019073	0.03479	-0.51819	0.11719	-0.005341	-0.012817	-0.056152	-0.055695	-0.002899	-0.069427	0.24139	-0.011749	0.004272	-0.001678	0.055389	-0.03418	0.22034	0.00473	0.16327	0.18234	-0.005341	0.033264	-0.006866	0.039978	0.13596	0.27176	-0.18295	-0.002441	-0.007172
40.006	0.025787	0.1947	-0.091095	-0.007324	0.061493	-0.33112	0.14633	0.006409	-0.02533	-0.023041	-0.010223	0.002594	-0.52475	0.21118	-0.047913	0.005951	-0.033417	0.059662	-0.038452	0.099792	-0.043182	0.15945	0.21805	-0.000153	0.028687	0.015259	0.060883	0.068054	0.084381	-0.33005	-0.001831	-0.005798
40.007	0.005493	0.24689	-0.068207	0.003357	0.025024	-0.16525	0.13565	0.010986	-0.007019	-0.019073	0.022125	0.001678	-0.12238	0.098114	-0.010529	-0.002289	-0.046692	0.047913	0.036163	0.006561	0.057526	-0.00885	0.2272	-0.030823	0.033112	-0.041962	0.045166	0.011444	0.39414	-0.09491	-0.000763	0.003357
40.008	0.007935	0.19699	-0.090332	0.007019	0.086212	-0.10162	0.11887	0.011597	0.001221	0.027466	0.001221	0.003815	-0.068665	0.02594	-0.018463	0.003815	-0.04303	0.014343	0.072479	-0.069122	0.11795	-0.02594	0.20065	0.018463	0.042725	-0.043945	-0.024414	-0.023193	0.090485	-0.14084	-0.001984	0.007782
40.009	0.019226	0.159	-0.095215	-0.003052	0.11063	-0.10513	0.0737	0.009155	-0.012817	0.19302	0.020752	-0.001221	0.13001	0.005951	-0.015564	-0.020905	-0.025787	0.071564	-0.037079	-0.034485	0.094604	0.030518	0.20157	0.014648	0.041962	0.013275	-0.038147	0.014038	-0.24323	0.10971	-0.004272	0.015411
40.01	0.011597	0.20676	-0.074158	0.008392	0.051727	-0.019073	-0.030212	0.007172	0.10941	0.22949	0.010834	-0.000305	0.19852	-0.010376	0.019989	0.011749	0.001221	0.065613	-0.15671	0.020142	0.026245	0.1535	0.17975	-0.039825	0.050049	0.026398	0.031433	0.007782	-0.23224	0.057678	-0.004578	0.018005
40.011	0.00946	0.22354	0.005951	0.022278	0.018768	-0.055695	-0.051575	0.023041	0.25894	0.25238	0.016022	-0.018921	-0.006104	0.044403	-0.008392	0.008545	0.001984	0.071259	-0.03067	0.03067	0.033875	0.14633	0.20386	-0.062561	0.040741	0.03067	0.04776	-0.020447	-0.22553	0.069275	-0.003662	0.017395
40.012	-0.006104	0.224	0.055237	0.015411	0.005646	-0.02182	0.067596	0.030975	0.21545	0.20248	0.010986	0.002747	-0.026093	0.019226	-0.090637	0.009918	0.012665	0.077362	0.086517	0.019379	0.074768	0.076599	0.22766	-0.099335	0.024872	0.029449	0.006104	-0.031128	-0.17502	0.027161	0.001831	0.013885
40.013	-0.00824	0.22125	0.12161	0.004578	0.001831	-0.075226	0.058899	0.035553	0.19882	-0.077972	0.003967	0.004578	-0.014496	0.053406	-0.07019	-0.001526	0.001678	0.088806	0.13184	-0.029144	0.059967	0.038757	0.19653	-0.042572	0.037231	0.020294	-0.023651	-0.030823	0.047913	0.009155	-0.007172	0.023956
40.014	-0.014954	0.20233	0.055695	-0.000153	-0.028992	-0.2594	0.014038	0.020752	0.2803	-0.18082	-0.023499	-0.004272	0.06485	0.10605	0.009155	0.010529	0.010834	0.000153	-0.04425	-0.021667	0.013123	0.030823	0.21469	-0.033417	0.033569	-0.000305	0.015869	-0.029602	-0.010223	0.004425	-0.00473	0.007782
40.015	0.002136	0.24262	0.021515	0.00351	-0.026398	-0.20279	-0.033417	0.014801	0.28961	-0.010376	0.018768	0.007629	0.080109	-0.027313	0.050659	0.002594	0.021515	0.011749	-0.13611	-0.048981	-0.0177	0.01297	0.19058	-0.02121	0.03418	-0.021057	-0.002289	-0.028076	-0.44739	-0.050201	-0.001831	0.009308
40.016	0.011597	0.30029	0.068359	0.001831	-0.020447	-0.050659	-0.035858	-0.01297	0.15167	-0.021362	-0.007629	-0.005035	0.15686	-0.2211	-0.018005	0.011597	0.020447	0.061035	-0.14191	-0.092773	-0.023956	0.039063	0.19638	-0.029907	0.035706	-0.018463	0.002136	-0.013123	-0.29114	-0.067139	-0.004883	0.010834
